HIERARCHY
ROOT Pelvis
{
	OFFSET 0.000000 0.000000 0.000000
	CHANNELS 6 Xposition Yposition Zposition Xrotation Yrotation Zrotation
	JOINT LeftUpLeg_virtual
	{
		OFFSET 0.000000 0.000000 0.000000
		CHANNELS 3 Xrotation Yrotation Zrotation
		JOINT LeftUpLeg
		{
			OFFSET 18.735201 -5.666702 -4.541200
			CHANNELS 3 Xrotation Yrotation Zrotation
			JOINT LeftLeg
			{
				OFFSET -0.021200 -31.938179 0.493100
				CHANNELS 3 Xrotation Yrotation Zrotation
				JOINT LeftFoot
				{
					OFFSET 0.021200 -31.938179 -4.336299
					CHANNELS 3 Xrotation Yrotation Zrotation
					JOINT LeftToeBase
					{
						OFFSET 0.943001 -26.722000 15.023500
						CHANNELS 3 Xrotation Yrotation Zrotation
						End Site
						{
							OFFSET 0 0 0
						}
					}
				}
			}
		}
	}
	JOINT RightUpLeg_virtual
	{
		OFFSET 0.000000 0.000000 0.000000
		CHANNELS 3 Xrotation Yrotation Zrotation
		JOINT RightUpLeg
		{
			OFFSET -18.735201 -5.666702 -4.541200
			CHANNELS 3 Xrotation Yrotation Zrotation
			JOINT RightLeg
			{
				OFFSET 0.018946 -31.938133 0.493100
				CHANNELS 3 Xrotation Yrotation Zrotation
				JOINT RightFoot
				{
					OFFSET -0.018946 -31.938126 -4.336299
					CHANNELS 3 Xrotation Yrotation Zrotation
					JOINT RightToeBase
					{
						OFFSET -0.943001 -26.722004 15.023500
						CHANNELS 3 Xrotation Yrotation Zrotation
						End Site
						{
							OFFSET 0 0 0
						}
					}
				}
			}
		}
	}
	JOINT Hips_virtual
	{
		OFFSET 0.000000 0.000000 0.000000
		CHANNELS 3 Xrotation Yrotation Zrotation
		JOINT Hips
		{
			OFFSET -0.000000 -0.000000 -0.000000
			CHANNELS 3 Xrotation Yrotation Zrotation
			JOINT Spine
			{
				OFFSET 0.000000 10.199997 -0.299500
				CHANNELS 3 Xrotation Yrotation Zrotation
				JOINT Spine1
				{
					OFFSET 0.000000 11.900002 -1.516600
					CHANNELS 3 Xrotation Yrotation Zrotation
					JOINT Spine2
					{
						OFFSET 0.000000 13.600006 -2.842500
						CHANNELS 3 Xrotation Yrotation Zrotation
						JOINT Neck_virtual
						{
							OFFSET 0.000000 0.000000 0.000000
							CHANNELS 3 Xrotation Yrotation Zrotation
							JOINT Neck
							{
								OFFSET 0.000000 9.624100 -2.890100
								CHANNELS 3 Xrotation Yrotation Zrotation
								JOINT Head
								{
									OFFSET 0.000000 14.068802 -1.351900
									CHANNELS 3 Xrotation Yrotation Zrotation
									End Site
									{
										OFFSET 0 0 0
									}
								}
							}
						}
						JOINT LeftShoulder_virtual
						{
							OFFSET 0.000000 0.000000 0.000000
							CHANNELS 3 Xrotation Yrotation Zrotation
							JOINT LeftShoulder
							{
								OFFSET 15.263000 10.923401 -0.547700
								CHANNELS 3 Xrotation Yrotation Zrotation
								JOINT LeftArm
								{
									OFFSET 25.438599 -2.830597 -13.032500
									CHANNELS 3 Xrotation Yrotation Zrotation
									JOINT LeftForeArm
									{
										OFFSET 29.960503 0.000000 0.000000
										CHANNELS 3 Xrotation Yrotation Zrotation
										JOINT LeftHand
										{
											OFFSET 27.849251 0.000000 0.000000
											CHANNELS 3 Xrotation Yrotation Zrotation
											End Site
											{
												OFFSET 0 0 0
											}
										}
									}
								}
							}
						}
						JOINT RightShoulder_virtual
						{
							OFFSET 0.000000 0.000000 0.000000
							CHANNELS 3 Xrotation Yrotation Zrotation
							JOINT RightShoulder
							{
								OFFSET -15.263000 10.923401 -0.547700
								CHANNELS 3 Xrotation Yrotation Zrotation
								JOINT RightArm
								{
									OFFSET -25.438599 -2.830597 -13.032500
									CHANNELS 3 Xrotation Yrotation Zrotation
									JOINT RightForeArm
									{
										OFFSET -29.960503 0.000000 0.000000
										CHANNELS 3 Xrotation Yrotation Zrotation
										JOINT RightHand
										{
											OFFSET -27.849251 0.000000 0.000000
											CHANNELS 3 Xrotation Yrotation Zrotation
											End Site
											{
												OFFSET 0 0 0
											}
										}
									}
								}
							}
						}
					}
				}
			}
		}
	}
}
MOTION
Frames: 12
Frame Time: 0.03333333
-1.282224 93.573929 1.917072 0.000000 0.000000 0.000000 1.167532 6.478373 5.344080 -9.058907 5.883145 1.938965 14.760109 4.458979 0.208322 -4.379558 0.665042 -6.178702 0.000000 0.000000 0.000000 1.167532 6.478373 5.344080 -14.778458 -11.142950 -14.698220 32.079206 0.123725 -2.187956 -17.985442 -9.090543 8.581167 0.000000 0.000000 0.000000 1.167532 6.478373 5.344080 0.000000 0.000000 0.000000 8.248451 -0.766595 6.994894 1.991700 -0.360839 1.359549 0.000000 0.000000 0.000000 1.985961 -0.352617 1.364338 0.569608 0.206803 1.523067 0.000000 0.000000 0.000000 1.985961 -0.352617 1.364338 0.629187 -5.254234 -12.915689 5.646134 -4.942454 -42.344547 -0.000004 -65.506268 0.000005 0.000000 0.000000 0.000000 1.985961 -0.352617 1.364338 1.638801 18.786254 11.884600 -22.655567 15.906291 61.287588 -179.998530 88.744614 179.998557 0.000000 0.000000 0.000000 
-1.294123 93.564560 2.019791 0.000000 0.000000 0.000000 1.164688 6.200595 5.333359 -8.870896 5.925313 1.984249 14.785177 4.644123 0.194349 -4.551238 0.679403 -6.260279 0.000000 0.000000 0.000000 1.164688 6.200595 5.333359 -14.641767 -10.577362 -14.507586 32.083396 -0.165748 -2.185950 -17.990116 -9.142216 8.656759 0.000000 0.000000 0.000000 1.164688 6.200595 5.333359 0.000000 0.000000 0.000001 8.197496 -0.954470 6.989972 1.977286 -0.412824 1.344539 0.000000 0.000000 0.000000 1.971132 -0.404076 1.350294 0.602786 0.233286 1.478326 0.000000 0.000000 0.000000 1.971132 -0.404076 1.350294 0.635352 -5.283652 -12.880635 5.726506 -4.951274 -42.398628 -0.000035 -65.564372 -0.000068 0.000000 0.000000 0.000000 1.971132 -0.404076 1.350294 1.688119 19.320710 11.981021 -17.246740 18.683079 60.973140 179.998120 84.868283 -179.998106 0.000000 0.000000 0.000000 
-1.246494 93.555840 2.123611 0.000000 0.000000 0.000000 1.101679 6.056613 5.333705 -8.648175 5.983128 1.963464 14.832225 4.701709 0.166524 -4.793752 0.686209 -6.199716 0.000000 0.000000 0.000000 1.101679 6.056613 5.333705 -14.361736 -9.994526 -14.352285 32.046647 -0.611170 -2.178832 -18.001057 -9.208554 8.832753 0.000000 0.000000 0.000000 1.101679 6.056613 5.333705 0.000000 0.000000 0.000000 8.131783 -1.284188 6.996480 1.966687 -0.503289 1.325314 0.000000 0.000000 0.000000 1.959778 -0.493537 1.332816 0.625433 0.264696 1.422336 0.000000 0.000000 0.000000 1.959778 -0.493537 1.332816 0.638524 -5.362368 -12.762701 5.906809 -5.087484 -42.408819 -0.000005 -65.558594 -0.000005 0.000000 0.000000 0.000000 1.959778 -0.493537 1.332816 1.812173 19.996169 11.753380 -12.150130 22.247784 60.206055 179.999144 81.797423 -179.999158 0.000000 0.000000 0.000000 
-1.177921 93.551224 2.212967 0.000000 0.000000 0.000000 1.026991 5.938216 5.300743 -8.450786 6.043876 1.973090 14.911370 4.725763 0.132881 -5.051910 0.694194 -6.144787 0.000000 0.000000 0.000000 1.026991 5.938216 5.300743 -14.026050 -9.405334 -14.166714 31.931640 -1.107299 -2.170161 -17.960870 -9.271342 9.033735 0.000000 0.000000 0.000000 1.026991 5.938216 5.300743 0.000000 0.000000 0.000000 8.079501 -1.707449 6.977528 1.960708 -0.619253 1.297406 0.000000 0.000000 0.000000 1.952975 -0.608263 1.307200 0.638812 0.296849 1.361749 0.000000 0.000000 0.000000 1.952975 -0.608263 1.307200 0.638614 -5.466734 -12.525825 6.178446 -5.316454 -42.390965 0.000024 -65.547167 0.000023 0.000000 0.000000 0.000000 1.952975 -0.608263 1.307200 1.973436 20.822762 11.448876 -7.453077 26.678272 58.483003 -179.994978 79.886173 179.995005 0.000000 0.000000 0.000000 
-1.089460 93.558350 2.287540 0.000000 0.000000 0.000000 0.877245 5.786770 5.253271 -8.185807 6.114039 1.987826 15.021427 4.796013 0.105881 -5.325934 0.702163 -6.089353 0.000000 0.000000 0.000000 0.877245 5.786770 5.253271 -13.601631 -8.816582 -13.976419 31.752033 -1.583619 -2.162074 -17.868198 -9.327640 9.243321 0.000000 0.000000 0.000000 0.877245 5.786770 5.253271 0.000000 0.000000 0.000000 8.033038 -2.145124 6.912071 1.949550 -0.739108 1.258280 0.000000 0.000000 0.000000 1.941189 -0.727064 1.270344 0.658652 0.324182 1.301666 0.000000 0.000000 0.000000 1.941189 -0.727064 1.270344 0.646574 -5.587139 -12.181946 6.521553 -5.578312 -42.384964 -0.000011 -65.581646 -0.000021 0.000000 0.000000 0.000000 1.941189 -0.727064 1.270344 2.127743 21.749853 11.226047 -2.955940 31.958223 55.283958 -179.995251 79.163457 179.995319 0.000000 0.000000 0.000000 
-0.984448 93.577194 2.355473 0.000000 0.000000 0.000000 0.716721 5.420325 5.170585 -7.816999 6.209666 1.994000 15.122563 5.030562 0.084432 -5.691672 0.712518 -5.999330 0.000000 0.000000 0.000000 0.716721 5.420325 5.170585 -13.222865 -8.209597 -13.785050 31.499364 -1.859793 -2.159270 -17.670691 -9.363138 9.411655 0.000000 0.000000 0.000000 0.716721 5.420325 5.170585 0.000000 0.000000 0.000000 7.985283 -2.425469 6.757043 1.926870 -0.814442 1.216386 0.000000 0.000000 0.000000 1.918327 -0.802435 1.229825 0.684246 0.338661 1.245384 0.000000 0.000000 0.000000 1.918327 -0.802435 1.229825 0.654071 -5.745022 -11.870239 6.829694 -5.875780 -42.297183 -0.000029 -65.743118 -0.000035 0.000000 0.000000 0.000000 1.918327 -0.802435 1.229825 2.264668 22.787451 11.057736 1.670487 37.648317 50.461137 -179.994377 79.409589 179.994432 0.000000 0.000000 0.000000 
-0.877250 93.602608 2.414177 0.000000 0.000000 0.000000 0.510531 4.873440 5.049039 -7.347072 6.331821 2.028713 15.262922 5.429684 0.058036 -6.153270 0.726807 -5.909689 0.000000 0.000000 0.000000 0.510531 4.873440 5.049039 -12.856619 -7.603094 -13.576750 31.204986 -1.958568 -2.160740 -17.401203 -9.380024 9.531733 0.000000 0.000000 0.000000 0.510531 4.873440 5.049039 0.000000 0.000000 0.000000 7.955092 -2.499203 6.495427 1.898656 -0.831236 1.165685 0.000000 0.000000 0.000000 1.890431 -0.820288 1.179327 0.700522 0.341026 1.195656 0.000000 0.000000 0.000000 1.890431 -0.820288 1.179327 0.660613 -5.893532 -11.550303 6.955301 -6.285245 -42.258780 -0.000020 -65.958099 -0.000030 0.000000 0.000000 0.000000 1.890431 -0.820288 1.179327 2.374778 24.004275 10.953895 6.640390 43.240859 44.109164 179.999759 80.543995 -179.999773 0.000000 0.000000 0.000000 
-0.761208 93.624329 2.455936 0.000000 0.000000 0.000000 0.339111 4.217138 4.902895 -6.892121 6.463162 2.061921 15.428057 5.930103 0.036160 -6.656388 0.739587 -5.833075 0.000000 0.000000 0.000000 0.339111 4.217138 4.902895 -12.596264 -6.980138 -13.376198 30.915905 -1.947799 -2.163987 -17.083562 -9.386019 9.628392 0.000000 0.000000 0.000000 0.339111 4.217138 4.902895 0.000000 0.000000 0.000000 7.899031 -2.441018 6.157722 1.865525 -0.809645 1.102692 0.000000 0.000000 0.000000 1.857966 -0.800170 1.115702 0.711154 0.335807 1.150928 0.000000 0.000000 0.000000 1.857966 -0.800170 1.115702 0.671565 -6.052864 -11.170686 6.914401 -6.803184 -42.323605 -0.000040 -66.147377 -0.000048 0.000000 0.000000 0.000000 1.857966 -0.800170 1.115702 2.470277 25.340497 10.870688 12.017971 48.445364 36.554527 179.998284 82.373857 -179.998311 0.000000 0.000000 0.000000 
-0.637446 93.658981 2.490692 0.000000 0.000000 0.000000 0.156195 3.530268 4.696180 -6.456227 6.584924 2.103878 15.653363 6.456986 0.038021 -7.231906 0.750754 -5.680730 0.000000 0.000000 0.000000 0.156195 3.530268 4.696180 -12.272044 -6.401125 -13.121709 30.470451 -1.891826 -2.167312 -16.673566 -9.378737 9.711580 0.000000 0.000000 0.000000 0.156195 3.530268 4.696180 0.000000 0.000000 0.000000 7.817235 -2.304699 5.782309 1.825062 -0.765803 1.025692 0.000000 0.000000 0.000000 1.818411 -0.757875 1.037539 0.722157 0.319813 1.115471 0.000000 0.000000 0.000000 1.818411 -0.757875 1.037539 0.682446 -6.285219 -10.794464 6.856294 -7.410237 -42.287648 0.000001 -66.334797 -0.000021 0.000000 0.000000 0.000000 1.818411 -0.757875 1.037539 2.557181 26.745802 10.789152 17.413169 52.893439 28.643327 -179.999937 84.612862 179.999923 0.000000 0.000000 0.000000 
-0.496550 93.702888 2.504204 0.000000 0.000000 0.000000 -0.054064 2.843157 4.457250 -6.043069 6.717012 2.175173 15.920572 6.977945 0.046099 -7.773688 0.767486 -5.573030 0.000000 0.000000 0.000000 -0.054064 2.843157 4.457250 -11.902264 -5.857490 -12.855762 29.930142 -1.810407 -2.171819 -16.196655 -9.364447 9.799277 0.000000 0.000000 0.000000 -0.054064 2.843157 4.457250 0.000000 0.000000 0.000000 7.770138 -2.110319 5.392499 1.785554 -0.706628 0.936186 0.000000 0.000000 0.000000 1.779964 -0.700142 0.946526 0.728305 0.289743 1.092568 0.000000 0.000000 0.000000 1.779964 -0.700142 0.946526 0.689430 -6.559872 -10.446863 6.778924 -8.142978 -42.203155 -0.000009 -66.414239 -0.000020 0.000000 0.000000 0.000000 1.779964 -0.700142 0.946526 2.634326 28.184188 10.712623 22.410124 56.472332 21.098384 -179.999500 87.168971 179.999431 0.000000 0.000000 0.000000 
-0.351269 93.749054 2.510918 0.000000 0.000000 0.000000 -0.276328 2.089836 4.159620 -5.625241 6.886506 2.343104 16.215988 7.492966 0.026829 -8.317088 0.804722 -5.579138 0.000000 0.000000 0.000000 -0.276328 2.089836 4.159620 -11.516529 -5.358349 -12.550222 29.293701 -1.632231 -2.178845 -15.649715 -9.342588 9.861513 0.000000 0.000000 0.000000 -0.276328 2.089836 4.159620 0.000000 0.000000 0.000000 7.744117 -1.871407 4.999191 1.750947 -0.635145 0.842868 0.000000 0.000000 0.000000 1.746452 -0.629926 0.851522 0.732891 0.250017 1.075096 0.000000 0.000000 0.000000 1.746452 -0.629926 0.851522 0.704129 -6.776257 -10.155645 6.647298 -8.921030 -42.167935 0.000003 -66.395893 -0.000005 0.000000 0.000000 0.000000 1.746452 -0.629926 0.851522 2.710427 29.574340 10.617036 28.105890 59.515557 12.856427 -0.028391 89.951542 0.029917 0.000000 0.000000 0.000000 
-0.200174 93.798981 2.492939 0.000000 0.000000 0.000000 -0.426011 1.297770 3.804613 -5.289764 7.096841 2.538392 16.539375 8.042462 -0.006373 -8.937793 0.814405 -5.478090 0.000000 0.000000 0.000000 -0.426011 1.297770 3.804613 -11.198993 -4.896814 -12.201602 28.528059 -1.387473 -2.187095 -14.997000 -9.314510 9.905571 0.000000 0.000000 0.000000 -0.426011 1.297770 3.804613 0.000000 0.000000 0.000000 7.707380 -1.594287 4.595375 1.717044 -0.552048 0.754106 0.000000 0.000000 0.000000 1.713577 -0.548102 0.760937 0.738750 0.208049 1.060335 0.000000 0.000000 0.000000 1.713577 -0.548102 0.760937 0.722754 -6.931303 -9.935210 6.469244 -9.611671 -42.145918 -0.000022 -66.402881 -0.000027 0.000000 0.000000 0.000000 1.713577 -0.548102 0.760937 2.774037 30.782338 10.531715 35.474315 62.041532 2.777688 0.000143 86.944948 -0.000070 0.000000 0.000000 0.000000 
